<mxfile host="app.diagrams.net" modified="2024-04-24T03:17:38.167Z" agent="Mozilla/5.0 (Macintosh; Intel Mac OS X 10_15_7) AppleWebKit/537.36 (KHTML, like Gecko) Chrome/122.0.0.0 Safari/537.36" version="24.2.5" etag="tfX3Cs54ysoBfPTbfvRb" type="github">
  <diagram name="Page-1" id="hf8vbC5gnfpXznW6TtMR">
    <mxGraphModel>
      <root>
        <mxCell id="0" />
        <mxCell id="1" parent="0" />
      </root>
    </mxGraphModel>
  </diagram>
</mxfile>
